<svg width="146" height="119" viewBox="0 0 146 119" fill="none" xmlns="http://www.w3.org/2000/svg">
<path d="M20.2 110H17V107.6L14.6 110H6.2C5.45333 110 4.8 109.72 4.24 109.16C3.68 108.6 3.4 107.947 3.4 107.2V93.2C3.4 92.4533 3.68 91.8 4.24 91.24C4.8 90.68 5.45333 90.4 6.2 90.4H20.2V93.2H6.6V107.2H17V101.6H11.8L14.6 98.8H20.2V110ZM36.8125 101.6H34.0125V98.4H28.4125V110H25.6125V96H28.4125V98L30.4125 96H34.0125C34.7858 96 35.4392 96.28 35.9725 96.84C36.5325 97.3733 36.8125 98.0267 36.8125 98.8V101.6ZM55.1984 107.2C55.1984 107.973 54.9184 108.64 54.3584 109.2C53.8251 109.733 53.1718 110 52.3984 110H43.9984C43.2251 110 42.5584 109.733 41.9984 109.2C41.4651 108.64 41.1984 107.973 41.1984 107.2V98.8C41.1984 98.0267 41.4651 97.3733 41.9984 96.84C42.5584 96.28 43.2251 96 43.9984 96H52.3984C53.1718 96 53.8251 96.28 54.3584 96.84C54.9184 97.3733 55.1984 98.0267 55.1984 98.8V107.2ZM52.3984 107.6V98.4H43.9984V107.6H52.3984ZM74.8078 110H72.0078V108L70.0078 110H63.6078C62.8345 110 62.1678 109.733 61.6078 109.2C61.0745 108.64 60.8078 107.973 60.8078 107.2V96H63.6078V107.6H72.0078V96H74.8078V110ZM94.4172 107.2C94.4172 107.973 94.1372 108.64 93.5772 109.2C93.0439 109.733 92.3905 110 91.6172 110H83.2172V118.4H80.4172V96H83.2172V98L85.2172 96H91.6172C92.3905 96 93.0439 96.28 93.5772 96.84C94.1372 97.3733 94.4172 98.0267 94.4172 98.8V107.2ZM91.6172 107.6V98.4H83.2172V109.6L85.2172 107.6H91.6172ZM102.827 93.6H100.027V90.4H102.827V93.6ZM102.827 110H100.027V98L102.827 95.2V110ZM122.425 110H119.625V98.4H111.225V110H108.425V96H111.225V98L113.225 96H119.625C120.398 96 121.052 96.28 121.585 96.84C122.145 97.3733 122.425 98.0267 122.425 98.8V110ZM143.634 96L141.234 98.4H131.234V107.6H139.634V99.6H142.434V115.6C142.434 116.373 142.154 117.027 141.594 117.56C141.061 118.12 140.408 118.4 139.634 118.4H128.034L130.434 116H139.634V107.96L137.234 110H131.234C130.461 110 129.794 109.733 129.234 109.2C128.701 108.64 128.434 107.973 128.434 107.2V98.8C128.434 98.0267 128.701 97.3733 129.234 96.84C129.794 96.28 130.461 96 131.234 96H143.634Z" fill="#EDF2F4"/>
<path d="M83.6641 5.46875C83.6641 4.88859 83.4336 4.33219 83.0234 3.92195C82.6131 3.51172 82.0567 3.28125 81.4766 3.28125H65.8906C65.3105 3.28125 64.7541 3.51172 64.3438 3.92195C63.9336 4.33219 63.7031 4.88859 63.7031 5.46875V22.4465C63.7031 23.0266 63.9336 23.583 64.3438 23.9933C64.7541 24.4035 65.3105 24.634 65.8906 24.634H81.4766C82.0567 24.634 82.6131 24.4035 83.0234 23.9933C83.4336 23.583 83.6641 23.0266 83.6641 22.4465V5.46875ZM70.1289 13.4668C69.4334 12.8809 68.9347 12.0953 68.7006 11.2165C68.4665 10.3377 68.5082 9.40815 68.8201 8.55385C69.132 7.69954 69.699 6.96177 70.4442 6.44049C71.1894 5.91921 72.0769 5.63963 72.9863 5.63963C73.8958 5.63963 74.7832 5.91921 75.5285 6.44049C76.2737 6.96177 76.8407 7.69954 77.1525 8.55385C77.4644 9.40815 77.5061 10.3377 77.272 11.2165C77.0379 12.0953 76.5393 12.8809 75.8437 13.4668L75.6551 13.6254L75.8902 13.6992C77.1806 14.1059 78.3073 14.9141 79.1061 16.0061C79.9049 17.098 80.334 18.4166 80.3309 19.7695V21.7246C80.3309 21.8696 80.2732 22.0087 80.1707 22.1113C80.0681 22.2139 79.929 22.2715 79.784 22.2715H66.1996C66.0546 22.2715 65.9155 22.2139 65.8129 22.1113C65.7104 22.0087 65.6527 21.8696 65.6527 21.7246V19.7695C65.6496 18.4166 66.0787 17.098 66.8775 16.0061C67.6763 14.9141 68.803 14.1059 70.0934 13.6992L70.3285 13.6254L70.1289 13.4668Z" fill="#40BDFF"/>
<path d="M72.6363 13.3984H73.3609C74.2107 13.3057 74.9926 12.8909 75.5458 12.2393C76.0991 11.5877 76.3815 10.7488 76.3351 9.89531C76.2887 9.04178 75.917 8.23849 75.2963 7.6507C74.6757 7.06291 73.8534 6.73532 72.9986 6.73532C72.1438 6.73532 71.3216 7.06291 70.7009 7.6507C70.0803 8.23849 69.7086 9.04178 69.6622 9.89531C69.6157 10.7488 69.8982 11.5877 70.4514 12.2393C71.0047 12.8909 71.7866 13.3057 72.6363 13.3984Z" fill="#EFFAFE"/>
<path d="M66.7465 19.7695V21.1777H79.2508V19.7695C79.2493 18.3708 78.6932 17.0298 77.7045 16.0404C76.7157 15.0511 75.3749 14.4944 73.9762 14.4922H72.0211C70.6224 14.4944 69.2816 15.0511 68.2928 16.0404C67.304 17.0298 66.7479 18.3708 66.7465 19.7695Z" fill="#EFFAFE"/>
<path d="M87.7902 61.8543V63.2625H100.295V61.8543C100.292 60.456 99.7359 59.1157 98.7472 58.127C97.7585 57.1383 96.4182 56.5819 95.0199 56.5797H93.0648C91.6666 56.5819 90.3262 57.1383 89.3375 58.127C88.3488 59.1157 87.7924 60.456 87.7902 61.8543Z" fill="#EFFAFE"/>
<path d="M102.531 45.366H86.9207C86.3406 45.366 85.7842 45.5965 85.3739 46.0067C84.9637 46.417 84.7332 46.9734 84.7332 47.5535V64.5312C84.7332 65.1114 84.9637 65.6678 85.3739 66.078C85.7842 66.4883 86.3406 66.7187 86.9207 66.7187H102.531C103.111 66.7187 103.668 66.4883 104.078 66.078C104.488 65.6678 104.719 65.1114 104.719 64.5312V47.5535C104.719 46.9734 104.488 46.417 104.078 46.0067C103.668 45.5965 103.111 45.366 102.531 45.366ZM89.6059 52.1637C89.6059 50.9874 90.0731 49.8593 90.9049 49.0275C91.7367 48.1958 92.8647 47.7285 94.041 47.7285C95.2173 47.7285 96.3454 48.1958 97.1772 49.0275C98.0089 49.8593 98.4762 50.9874 98.4762 52.1637C98.4762 53.5145 97.9293 54.6793 96.7098 55.7184C99.827 56.7109 101.388 59.232 101.388 61.8625V63.8176C101.388 63.9626 101.331 64.1017 101.228 64.2043C101.126 64.3068 100.986 64.3644 100.841 64.3644H87.2434C87.0983 64.3644 86.9592 64.3068 86.8567 64.2043C86.7541 64.1017 86.6965 63.9626 86.6965 63.8176V61.8625C86.6965 59.2156 88.2688 56.7055 91.375 55.7184C90.1555 54.6875 89.6059 53.5145 89.6059 52.1637Z" fill="#FFDD00"/>
<path d="M93.6801 55.4832H94.4047C95.2545 55.3905 96.0364 54.9757 96.5896 54.3241C97.1428 53.6725 97.4253 52.8336 97.3789 51.9801C97.3325 51.1266 96.9607 50.3233 96.3401 49.7355C95.7195 49.1477 94.8972 48.8201 94.0424 48.8201C93.1876 48.8201 92.3653 49.1477 91.7447 49.7355C91.1241 50.3233 90.7523 51.1266 90.7059 51.9801C90.6595 52.8336 90.942 53.6725 91.4952 54.3241C92.0484 54.9757 92.8303 55.3905 93.6801 55.4832Z" fill="#EFFAFE"/>
<path d="M45.7055 61.8543V63.2625H58.2098V61.8543C58.2076 60.456 57.6512 59.1157 56.6625 58.127C55.6738 57.1383 54.3334 56.5819 52.9352 56.5797H50.9801C49.5818 56.5819 48.2415 57.1383 47.2528 58.127C46.2641 59.1157 45.7076 60.456 45.7055 61.8543Z" fill="#EFFAFE"/>
<path d="M60.4465 45.366H44.8359C44.2558 45.366 43.6994 45.5965 43.2891 46.0067C42.8789 46.417 42.6484 46.9734 42.6484 47.5535V64.5312C42.6484 65.1114 42.8789 65.6678 43.2891 66.078C43.6994 66.4883 44.2558 66.7187 44.8359 66.7187H60.4465C61.0266 66.7187 61.583 66.4883 61.9933 66.078C62.4035 65.6678 62.634 65.1114 62.634 64.5312V47.5535C62.634 46.9734 62.4035 46.417 61.9933 46.0067C61.583 45.5965 61.0266 45.366 60.4465 45.366ZM49.0988 55.5516C48.4033 54.9656 47.9047 54.18 47.6706 53.3012C47.4364 52.4224 47.4782 51.4929 47.79 50.6386C48.1019 49.7843 48.6689 49.0465 49.4141 48.5253C50.1593 48.004 51.0468 47.7244 51.9563 47.7244C52.8657 47.7244 53.7532 48.004 54.4984 48.5253C55.2436 49.0465 55.8106 49.7843 56.1225 50.6386C56.4343 51.4929 56.4761 52.4224 56.2419 53.3012C56.0078 54.18 55.5092 54.9656 54.8137 55.5516L54.625 55.7102L54.8602 55.784C56.1505 56.1907 57.2772 56.9989 58.076 58.0909C58.8748 59.1828 59.3039 60.5014 59.3008 61.8543V63.8094C59.3008 63.9544 59.2432 64.0935 59.1406 64.1961C59.038 64.2986 58.8989 64.3562 58.7539 64.3562H45.1586C45.0136 64.3562 44.8745 64.2986 44.7719 64.1961C44.6693 64.0935 44.6117 63.9544 44.6117 63.8094V61.8543C44.608 60.5009 45.0368 59.1817 45.8357 58.0892C46.6345 56.9967 47.7615 56.1881 49.0523 55.7812L49.2875 55.7074L49.0988 55.5516Z" fill="#EB5639"/>
<path d="M51.5953 55.4832H52.3199C53.1697 55.3905 53.9516 54.9757 54.5048 54.3241C55.058 53.6725 55.3405 52.8336 55.2941 51.9801C55.2477 51.1266 54.8759 50.3233 54.2553 49.7355C53.6347 49.1477 52.8124 48.8201 51.9576 48.8201C51.1028 48.8201 50.2805 49.1477 49.6599 49.7355C49.0393 50.3233 48.6676 51.1266 48.6211 51.9801C48.5747 52.8336 48.8572 53.6725 49.4104 54.3241C49.9636 54.9757 50.7456 55.3905 51.5953 55.4832Z" fill="#EFFAFE"/>
<path d="M52.9352 56.5797H51.568C52.9662 56.5819 54.3066 57.1383 55.2953 58.127C56.284 59.1157 56.8404 60.456 56.8426 61.8543V63.2625H58.2098V61.8543C58.2076 60.456 57.6512 59.1157 56.6625 58.127C55.6738 57.1383 54.3334 56.5819 52.9352 56.5797Z" fill="#E4EBED"/>
<path d="M51.9453 48.8223C51.7156 48.8224 51.4865 48.8462 51.2617 48.8934C52.0125 49.0508 52.6863 49.4617 53.1699 50.0572C53.6536 50.6528 53.9175 51.3965 53.9175 52.1637C53.9175 52.9308 53.6536 53.6746 53.1699 54.2701C52.6863 54.8656 52.0125 55.2766 51.2617 55.434C51.3656 55.4559 51.475 55.4723 51.5816 55.4859H52.3062C53.1569 55.3945 53.9401 54.9802 54.4944 54.3285C55.0487 53.6768 55.3319 52.8373 55.2856 51.9829C55.2394 51.1286 54.8672 50.3246 54.2457 49.7366C53.6242 49.1485 52.8009 48.8213 51.9453 48.8223Z" fill="#E4EBED"/>
<path d="M95.0199 56.5797H93.6527C95.051 56.5819 96.3913 57.1383 97.3801 58.127C98.3688 59.1157 98.9252 60.456 98.9274 61.8543V63.2625H100.295V61.8543C100.292 60.456 99.736 59.1157 98.7472 58.127C97.7585 57.1383 96.4182 56.5819 95.0199 56.5797Z" fill="#E4EBED"/>
<path d="M94.0547 48.8223C93.825 48.8224 93.5959 48.8462 93.3711 48.8934C94.1219 49.0508 94.7957 49.4617 95.2793 50.0572C95.7629 50.6528 96.0269 51.3965 96.0269 52.1637C96.0269 52.9308 95.7629 53.6746 95.2793 54.2701C94.7957 54.8656 94.1219 55.2766 93.3711 55.434C93.475 55.4559 93.5844 55.4723 93.691 55.4859H94.4156C95.2663 55.3945 96.0495 54.9802 96.6038 54.3285C97.1581 53.6768 97.4413 52.8373 97.395 51.9829C97.3487 51.1286 96.9765 50.3246 96.3551 49.7366C95.7336 49.1485 94.9103 48.8213 94.0547 48.8223Z" fill="#E4EBED"/>
<path d="M73.9762 14.4922H72.609C74.0082 14.4936 75.3496 15.0501 76.339 16.0395C77.3284 17.0289 77.8849 18.3703 77.8863 19.7695V21.1777H79.2535V19.7695C79.2521 18.3703 78.6956 17.0289 77.7062 16.0395C76.7168 15.0501 75.3754 14.4936 73.9762 14.4922Z" fill="#E4EBED"/>
<path d="M73 6.73751C72.7703 6.73766 72.5412 6.76149 72.3164 6.8086C73.0672 6.966 73.741 7.37697 74.2246 7.97248C74.7082 8.56799 74.9722 9.31177 74.9722 10.0789C74.9722 10.8461 74.7082 11.5898 74.2246 12.1853C73.741 12.7809 73.0672 13.1918 72.3164 13.3492C72.4203 13.3711 72.5297 13.3875 72.6363 13.4012H73.3609C74.2116 13.3097 74.9948 12.8955 75.5491 12.2437C76.1034 11.592 76.3866 10.7525 76.3403 9.89819C76.2941 9.04387 75.9218 8.23985 75.3004 7.65181C74.6789 7.06377 73.8556 6.73653 73 6.73751Z" fill="#E4EBED"/>
<path d="M81.4766 3.28125H80.1094C80.6895 3.28125 81.2459 3.51172 81.6562 3.92195C82.0664 4.33219 82.2969 4.88859 82.2969 5.46875V22.4465C82.2969 23.0266 82.0664 23.583 81.6562 23.9933C81.2459 24.4035 80.6895 24.634 80.1094 24.634H81.4766C82.0567 24.634 82.6131 24.4035 83.0234 23.9933C83.4336 23.583 83.6641 23.0266 83.6641 22.4465V5.46875C83.6641 4.88859 83.4336 4.33219 83.0234 3.92195C82.6131 3.51172 82.0567 3.28125 81.4766 3.28125Z" fill="#2197F7"/>
<path d="M60.4465 45.366H59.0793C59.6594 45.366 60.2158 45.5965 60.6261 46.0067C61.0363 46.417 61.2668 46.9734 61.2668 47.5535V64.5312C61.2668 65.1114 61.0363 65.6678 60.6261 66.078C60.2158 66.4883 59.6594 66.7187 59.0793 66.7187H60.4465C61.0266 66.7187 61.583 66.4883 61.9933 66.078C62.4035 65.6678 62.634 65.1114 62.634 64.5312V47.5535C62.634 46.9734 62.4035 46.417 61.9933 46.0067C61.583 45.5965 61.0266 45.366 60.4465 45.366Z" fill="#D84936"/>
<path d="M102.531 45.366H101.164C101.744 45.366 102.301 45.5965 102.711 46.0067C103.121 46.417 103.352 46.9734 103.352 47.5535V64.5312C103.352 65.1114 103.121 65.6678 102.711 66.078C102.301 66.4883 101.744 66.7187 101.164 66.7187H102.531C103.111 66.7187 103.668 66.4883 104.078 66.078C104.488 65.6678 104.719 65.1114 104.719 64.5312V47.5535C104.719 46.9734 104.488 46.417 104.078 46.0067C103.668 45.5965 103.111 45.366 102.531 45.366Z" fill="#EFC803"/>
<path d="M75.9477 13.5707C76.6645 12.9666 77.1782 12.1568 77.4194 11.2509C77.6605 10.3451 77.6174 9.38701 77.2958 8.50649C76.9743 7.62597 76.3898 6.86557 75.6217 6.32832C74.8535 5.79106 73.9388 5.50291 73.0014 5.50291C72.064 5.50291 71.1492 5.79106 70.3811 6.32832C69.6129 6.86557 69.0285 7.62597 68.7069 8.50649C68.3853 9.38701 68.3422 10.3451 68.5834 11.2509C68.8245 12.1568 69.3383 12.9666 70.0551 13.5707C68.7393 13.9897 67.5906 14.8158 66.7748 15.93C65.9589 17.0441 65.5182 18.3886 65.516 19.7695V21.7246C65.516 21.9059 65.588 22.0798 65.7162 22.208C65.8444 22.3362 66.0183 22.4082 66.1996 22.4082H79.7977C79.979 22.4082 80.1528 22.3362 80.281 22.208C80.4092 22.0798 80.4813 21.9059 80.4813 21.7246V19.7695C80.4795 18.3893 80.0395 17.0453 79.2247 15.9312C78.4099 14.8172 77.2625 13.9906 75.9477 13.5707ZM69.7953 10.0789C69.7953 9.46001 69.9745 8.85435 70.3113 8.3351C70.6481 7.81585 71.128 7.40523 71.6931 7.15284C72.2582 6.90045 72.8843 6.81709 73.4958 6.91283C74.1072 7.00857 74.6778 7.27931 75.1388 7.69235C75.5997 8.10539 75.9311 8.64306 76.093 9.2404C76.255 9.83773 76.2405 10.4692 76.0513 11.0585C75.8622 11.6477 75.5064 12.1696 75.027 12.5611C74.5477 12.9526 73.9652 13.1969 73.35 13.2645H72.6527C71.8679 13.1783 71.1424 12.8056 70.6151 12.2179C70.0879 11.6301 69.796 10.8685 69.7953 10.0789ZM79.1168 21.0547H66.8832V19.7695C66.8847 18.4073 67.4264 17.1013 68.3897 16.1381C69.3529 15.1749 70.6589 14.6331 72.0211 14.6316H73.9762C75.3389 14.6324 76.6456 15.1738 77.6094 16.1371C78.5732 17.1004 79.1154 18.4069 79.1168 19.7695V21.0547Z" fill="#263238"/>
<path d="M84.9082 22.4465V5.46875C84.9078 5.01885 84.8187 4.57343 84.646 4.15802C84.4732 3.7426 84.2202 3.36534 83.9015 3.04784C83.5827 2.73035 83.2044 2.47885 82.7883 2.30776C82.3722 2.13667 81.9265 2.04934 81.4766 2.05078H64.5234C64.0735 2.04934 63.6278 2.13667 63.2117 2.30776C62.7956 2.47885 62.4173 2.73035 62.0985 3.04784C61.7798 3.36534 61.5268 3.7426 61.354 4.15802C61.1813 4.57343 61.0922 5.01885 61.0918 5.46875V22.4465C61.0922 22.8964 61.1813 23.3418 61.354 23.7572C61.5268 24.1726 61.7798 24.5499 62.0985 24.8674C62.4173 25.1849 62.7956 25.4364 63.2117 25.6075C63.6278 25.7786 64.0735 25.8659 64.5234 25.8645H81.4766C81.9265 25.8659 82.3722 25.7786 82.7883 25.6075C83.2044 25.4364 83.5827 25.1849 83.9015 24.8674C84.2202 24.5499 84.4732 24.1726 84.646 23.7572C84.8187 23.3418 84.9078 22.8964 84.9082 22.4465ZM62.4617 22.4465V5.46875C62.4621 5.19862 62.5157 4.93121 62.6196 4.68185C62.7235 4.43248 62.8755 4.20606 63.067 4.01556C63.2586 3.82505 63.4858 3.67421 63.7357 3.57166C63.9856 3.46912 64.2533 3.41689 64.5234 3.41797H81.4766C82.0202 3.41869 82.5414 3.63499 82.9259 4.01943C83.3103 4.40387 83.5266 4.92507 83.5273 5.46875V22.4465C83.5266 22.9902 83.3103 23.5114 82.9259 23.8958C82.5414 24.2802 82.0202 24.4965 81.4766 24.4973H64.5234C64.2531 24.4987 63.9851 24.4467 63.7349 24.3444C63.4846 24.242 63.2571 24.0912 63.0653 23.9007C62.8735 23.7101 62.7212 23.4836 62.6171 23.234C62.5131 22.9845 62.4593 22.7168 62.459 22.4465H62.4617Z" fill="#263238"/>
<path d="M45.1586 64.493H58.7566C58.9379 64.493 59.1118 64.4209 59.24 64.2928C59.3682 64.1646 59.4402 63.9907 59.4402 63.8094V61.8543C59.4389 60.4733 58.9988 59.1284 58.1834 58.0137C57.3681 56.8991 56.2197 56.0723 54.9039 55.6527C55.6207 55.0486 56.1345 54.2388 56.3756 53.333C56.6168 52.4271 56.5737 51.469 56.2521 50.5885C55.9305 49.708 55.3461 48.9476 54.5779 48.4103C53.8098 47.8731 52.895 47.5849 51.9576 47.5849C51.0202 47.5849 50.1055 47.8731 49.3373 48.4103C48.5692 48.9476 47.9847 49.708 47.6632 50.5885C47.3416 51.469 47.2985 52.4271 47.5396 53.333C47.7808 54.2388 48.2945 55.0486 49.0113 55.6527C47.6956 56.0723 46.5472 56.8991 45.7318 58.0137C44.9165 59.1284 44.4764 60.4733 44.475 61.8543V63.8094C44.475 63.9907 44.547 64.1646 44.6752 64.2928C44.8034 64.4209 44.9773 64.493 45.1586 64.493ZM48.7543 52.1637C48.7543 51.5448 48.9335 50.9391 49.2703 50.4199C49.6071 49.9006 50.087 49.49 50.6521 49.2376C51.2172 48.9852 51.8433 48.9019 52.4547 48.9976C53.0662 49.0933 53.6368 49.3641 54.0977 49.7771C54.5586 50.1902 54.8901 50.7278 55.052 51.3252C55.214 51.9225 55.1995 52.554 55.0103 53.1432C54.8211 53.7325 54.4654 54.2544 53.986 54.6459C53.5067 55.0373 52.9242 55.2816 52.309 55.3492H51.609C50.8246 55.2624 50.0998 54.8895 49.5731 54.3018C49.0464 53.7141 48.7549 52.9528 48.7543 52.1637ZM45.8422 61.8543C45.8436 60.4921 46.3854 59.1861 47.3486 58.2229C48.3119 57.2596 49.6179 56.7179 50.9801 56.7164H52.9352C54.2974 56.7179 55.6034 57.2596 56.5666 58.2229C57.5298 59.1861 58.0716 60.4921 58.0731 61.8543V63.1258H45.8422V61.8543Z" fill="#263238"/>
<path d="M43.4688 67.9492H60.4465C61.3528 67.9485 62.2217 67.5882 62.8626 66.9473C63.5034 66.3065 63.8637 65.4375 63.8645 64.5312V47.5535C63.8637 46.6472 63.5034 45.7783 62.8626 45.1374C62.2217 44.4966 61.3528 44.1363 60.4465 44.1355H43.4688C42.5625 44.1363 41.6935 44.4966 41.0527 45.1374C40.4118 45.7783 40.0515 46.6472 40.0508 47.5535V64.5312C40.0515 65.4375 40.4118 66.3065 41.0527 66.9473C41.6935 67.5882 42.5625 67.9485 43.4688 67.9492ZM41.418 47.5535C41.4187 47.0098 41.635 46.4886 42.0194 46.1042C42.4039 45.7197 42.9251 45.5035 43.4688 45.5027H60.4465C60.9902 45.5035 61.5114 45.7197 61.8958 46.1042C62.2802 46.4886 62.4965 47.0098 62.4973 47.5535V64.5312C62.4965 65.0749 62.2802 65.5961 61.8958 65.9806C61.5114 66.365 60.9902 66.5813 60.4465 66.582H43.4688C42.9251 66.5813 42.4039 66.365 42.0194 65.9806C41.635 65.5961 41.4187 65.0749 41.418 64.5312V47.5535Z" fill="#263238"/>
<path d="M96.9887 55.6527C97.7054 55.0486 98.2192 54.2388 98.4604 53.333C98.7015 52.4271 98.6584 51.469 98.3368 50.5885C98.0153 49.708 97.4308 48.9476 96.6627 48.4103C95.8945 47.8731 94.9798 47.5849 94.0424 47.5849C93.105 47.5849 92.1902 47.8731 91.4221 48.4103C90.6539 48.9476 90.0695 49.708 89.7479 50.5885C89.4263 51.469 89.3832 52.4271 89.6244 53.333C89.8655 54.2388 90.3793 55.0486 91.0961 55.6527C89.7803 56.0723 88.6319 56.8991 87.8166 58.0137C87.0012 59.1284 86.5611 60.4733 86.5598 61.8543V63.8094C86.5598 63.9907 86.6318 64.1646 86.76 64.2928C86.8882 64.4209 87.062 64.493 87.2433 64.493H100.841C101.023 64.493 101.197 64.4209 101.325 64.2928C101.453 64.1646 101.525 63.9907 101.525 63.8094V61.8543C101.524 60.4733 101.084 59.1284 100.268 58.0137C99.4528 56.8991 98.3044 56.0723 96.9887 55.6527ZM90.8391 52.1637C90.8391 51.5448 91.0183 50.9391 91.355 50.4199C91.6918 49.9006 92.1717 49.49 92.7368 49.2376C93.3019 48.9852 93.928 48.9019 94.5395 48.9976C95.1509 49.0933 95.7216 49.3641 96.1825 49.7771C96.6434 50.1902 96.9748 50.7278 97.1368 51.3252C97.2987 51.9225 97.2842 52.554 97.0951 53.1432C96.9059 53.7325 96.5501 54.2544 96.0708 54.6459C95.5914 55.0373 95.0089 55.2816 94.3937 55.3492H93.6965C92.9111 55.2637 92.1849 54.8913 91.6571 54.3035C91.1293 53.7156 90.8371 52.9537 90.8363 52.1637H90.8391ZM100.161 63.1258H87.9269V61.8543C87.9284 60.4921 88.4702 59.1861 89.4334 58.2229C90.3966 57.2596 91.7026 56.7179 93.0648 56.7164H95.0199C96.3821 56.7179 97.6881 57.2596 98.6513 58.2229C99.6146 59.1861 100.156 60.4921 100.158 61.8543L100.161 63.1258Z" fill="#263238"/>
<path d="M102.531 44.1355H85.5535C84.6472 44.1363 83.7783 44.4966 83.1375 45.1374C82.4966 45.7783 82.1363 46.6472 82.1356 47.5535V64.5312C82.1363 65.4375 82.4966 66.3065 83.1375 66.9473C83.7783 67.5882 84.6472 67.9485 85.5535 67.9492H102.531C103.438 67.9485 104.306 67.5882 104.947 66.9473C105.588 66.3065 105.949 65.4375 105.949 64.5312V47.5535C105.949 46.6472 105.588 45.7783 104.947 45.1374C104.306 44.4966 103.438 44.1363 102.531 44.1355ZM104.582 64.5312C104.581 65.0749 104.365 65.5961 103.981 65.9806C103.596 66.365 103.075 66.5813 102.531 66.582H85.5535C85.0098 66.5813 84.4886 66.365 84.1042 65.9806C83.7198 65.5961 83.5035 65.0749 83.5027 64.5312V47.5535C83.5035 47.0098 83.7198 46.4886 84.1042 46.1042C84.4886 45.7197 85.0098 45.5035 85.5535 45.5027H102.531C103.075 45.5035 103.596 45.7197 103.981 46.1042C104.365 46.4886 104.581 47.0098 104.582 47.5535V64.5312Z" fill="#263238"/>
<path d="M75.7344 60.3914C75.7979 60.4551 75.8733 60.5056 75.9563 60.54C76.0394 60.5745 76.1284 60.5922 76.2183 60.5922C76.3083 60.5922 76.3973 60.5745 76.4803 60.54C76.5634 60.5056 76.6388 60.4551 76.7023 60.3914L80.5687 56.525C80.6324 56.4615 80.6829 56.3861 80.7174 56.303C80.7518 56.22 80.7696 56.1309 80.7696 56.041C80.7696 55.9511 80.7518 55.8621 80.7174 55.779C80.6829 55.696 80.6324 55.6205 80.5687 55.557L76.6996 51.6797C76.5712 51.5513 76.3971 51.4792 76.2156 51.4792C76.0341 51.4792 75.86 51.5513 75.7316 51.6797C75.6033 51.8081 75.5312 51.9821 75.5312 52.1637C75.5312 52.3452 75.6033 52.5193 75.7316 52.6477L78.4305 55.3492H65.9152C65.7339 55.3492 65.56 55.4212 65.4318 55.5494C65.3037 55.6776 65.2316 55.8515 65.2316 56.0328C65.2316 56.2141 65.3037 56.388 65.4318 56.5162C65.56 56.6444 65.7339 56.7164 65.9152 56.7164H78.4332L75.7344 59.4262C75.6066 59.5543 75.5349 59.7279 75.5349 59.9088C75.5349 60.0897 75.6066 60.2633 75.7344 60.3914Z" fill="#EDF2F4"/>
<path d="M89.0316 33.4086C89.2129 33.4086 89.3868 33.3366 89.515 33.2084C89.6432 33.0802 89.7152 32.9063 89.7152 32.725V28.8969L98.5664 37.7481C98.6948 37.8764 98.8689 37.9485 99.0504 37.9485C99.2319 37.9485 99.406 37.8764 99.5344 37.7481C99.6627 37.6197 99.7348 37.4456 99.7348 37.2641C99.7348 37.0825 99.6627 36.9084 99.5344 36.7801L90.6832 27.9289H94.5113C94.6926 27.9289 94.8665 27.8569 94.9947 27.7287C95.1229 27.6005 95.1949 27.4266 95.1949 27.2453C95.1949 27.064 95.1229 26.8901 94.9947 26.7619C94.8665 26.6337 94.6926 26.5617 94.5113 26.5617H89.0426C88.8613 26.5617 88.6874 26.6337 88.5592 26.7619C88.431 26.8901 88.359 27.064 88.359 27.2453V32.7141C88.3575 32.8038 88.3738 32.893 88.4068 32.9765C88.4398 33.06 88.489 33.1362 88.5514 33.2007C88.6139 33.2652 88.6885 33.3167 88.7709 33.3524C88.8532 33.3881 88.9419 33.4072 89.0316 33.4086Z" fill="#EDF2F4"/>
<path d="M57.4496 26.7723C57.3861 26.7086 57.3107 26.6581 57.2276 26.6236C57.1446 26.5892 57.0555 26.5714 56.9656 26.5714C56.8757 26.5714 56.7867 26.5892 56.7036 26.6236C56.6206 26.6581 56.5451 26.7086 56.4816 26.7723L47.6332 35.6234V31.7953C47.6332 31.614 47.5612 31.4401 47.433 31.3119C47.3048 31.1837 47.1309 31.1117 46.9496 31.1117C46.7683 31.1117 46.5944 31.1837 46.4662 31.3119C46.338 31.4401 46.266 31.614 46.266 31.7953V37.2641C46.266 37.4454 46.338 37.6192 46.4662 37.7474C46.5944 37.8756 46.7683 37.9477 46.9496 37.9477H52.4184C52.5997 37.9477 52.7735 37.8756 52.9017 37.7474C53.0299 37.6192 53.102 37.4454 53.102 37.2641C53.102 37.0828 53.0299 36.9089 52.9017 36.7807C52.7735 36.6525 52.5997 36.5805 52.4184 36.5805H48.5902L57.4414 27.7293C57.5678 27.6026 57.6394 27.4314 57.6409 27.2525C57.6425 27.0735 57.5738 26.9011 57.4496 26.7723Z" fill="#EDF2F4"/>
<path d="M102.892 16.6797H101.798V15.5859C101.798 15.5134 101.77 15.4439 101.718 15.3926C101.667 15.3413 101.598 15.3125 101.525 15.3125C101.452 15.3125 101.383 15.3413 101.332 15.3926C101.28 15.4439 101.252 15.5134 101.252 15.5859V16.6797H100.158C100.085 16.6797 100.016 16.7085 99.9645 16.7598C99.9132 16.8111 99.8844 16.8806 99.8844 16.9531C99.8844 17.0256 99.9132 17.0952 99.9645 17.1465C100.016 17.1978 100.085 17.2266 100.158 17.2266H101.252V18.3203C101.252 18.3928 101.28 18.4624 101.332 18.5137C101.383 18.5649 101.452 18.5938 101.525 18.5938C101.598 18.5938 101.667 18.5649 101.718 18.5137C101.77 18.4624 101.798 18.3928 101.798 18.3203V17.2266H102.892C102.965 17.2266 103.034 17.1978 103.086 17.1465C103.137 17.0952 103.166 17.0256 103.166 16.9531C103.166 16.8806 103.137 16.8111 103.086 16.7598C103.034 16.7085 102.965 16.6797 102.892 16.6797Z" fill="#FFDD00"/>
<path d="M92.3402 10.5273C92.0158 10.5273 91.6986 10.4311 91.4288 10.2508C91.159 10.0706 90.9487 9.81434 90.8245 9.51456C90.7003 9.21477 90.6678 8.8849 90.7311 8.56665C90.7944 8.2484 90.9507 7.95607 91.1801 7.72662C91.4096 7.49718 91.7019 7.34092 92.0202 7.27762C92.3384 7.21431 92.6683 7.2468 92.9681 7.37098C93.2679 7.49515 93.5241 7.70544 93.7044 7.97524C93.8846 8.24504 93.9809 8.56223 93.9809 8.88672C93.9809 9.32184 93.808 9.73914 93.5003 10.0468C93.1927 10.3545 92.7754 10.5273 92.3402 10.5273ZM92.3402 7.79297C92.1239 7.79297 91.9125 7.85712 91.7326 7.9773C91.5527 8.09748 91.4125 8.2683 91.3297 8.46816C91.247 8.66802 91.2253 8.88793 91.2675 9.1001C91.3097 9.31227 91.4139 9.50715 91.5668 9.66012C91.7198 9.81308 91.9147 9.91725 92.1269 9.95945C92.339 10.0017 92.5589 9.98 92.7588 9.89721C92.9587 9.81443 93.1295 9.67424 93.2497 9.49437C93.3698 9.31451 93.434 9.10304 93.434 8.88672C93.434 8.59664 93.3188 8.31844 93.1136 8.11332C92.9085 7.9082 92.6303 7.79297 92.3402 7.79297Z" fill="#40BDFF"/>
<path d="M79.9727 40.7094C79.6482 40.7094 79.331 40.6132 79.0612 40.4329C78.7914 40.2526 78.5811 39.9964 78.4569 39.6966C78.3327 39.3968 78.3003 39.0669 78.3636 38.7487C78.4269 38.4304 78.5831 38.1381 78.8126 37.9087C79.042 37.6792 79.3343 37.523 79.6526 37.4597C79.9708 37.3964 80.3007 37.4288 80.6005 37.553C80.9003 37.6772 81.1565 37.8875 81.3368 38.1573C81.5171 38.4271 81.6133 38.7443 81.6133 39.0688C81.6133 39.5039 81.4404 39.9212 81.1328 40.2289C80.8251 40.5365 80.4078 40.7094 79.9727 40.7094ZM79.9727 37.975C79.7563 37.975 79.5449 38.0392 79.365 38.1593C79.1851 38.2795 79.0449 38.4503 78.9622 38.6502C78.8794 38.8501 78.8577 39.07 78.8999 39.2821C78.9421 39.4943 79.0463 39.6892 79.1993 39.8422C79.3522 39.9951 79.5471 40.0993 79.7593 40.1415C79.9714 40.1837 80.1914 40.162 80.3912 40.0793C80.5911 39.9965 80.7619 39.8563 80.8821 39.6764C81.0023 39.4965 81.0664 39.2851 81.0664 39.0688C81.0664 38.7787 80.9512 38.5005 80.7461 38.2954C80.5409 38.0902 80.2627 37.975 79.9727 37.975Z" fill="#FFDD00"/>
<path d="M101.525 31.1719C101.201 31.1719 100.883 31.0757 100.614 30.8954C100.344 30.7151 100.133 30.4589 100.009 30.1591C99.8851 29.8593 99.8526 29.5294 99.9159 29.2112C99.9792 28.8929 100.135 28.6006 100.365 28.3712C100.594 28.1417 100.887 27.9855 101.205 27.9221C101.523 27.8588 101.853 27.8913 102.153 28.0155C102.453 28.1397 102.709 28.35 102.889 28.6198C103.069 28.8896 103.166 29.2068 103.166 29.5313C103.166 29.9664 102.993 30.3837 102.685 30.6913C102.377 30.999 101.96 31.1719 101.525 31.1719ZM101.525 28.4375C101.309 28.4375 101.097 28.5016 100.917 28.6218C100.737 28.742 100.597 28.9128 100.515 29.1127C100.432 29.3125 100.41 29.5325 100.452 29.7446C100.494 29.9568 100.599 30.1517 100.752 30.3046C100.905 30.4576 101.099 30.5618 101.312 30.604C101.524 30.6462 101.744 30.6245 101.944 30.5417C102.143 30.459 102.314 30.3188 102.434 30.1389C102.555 29.959 102.619 29.7476 102.619 29.5313C102.619 29.2412 102.504 28.963 102.298 28.7579C102.093 28.5527 101.815 28.4375 101.525 28.4375Z" fill="#40BDFF"/>
<path d="M54.0098 19.9609H53.3125L53.8129 19.4605C53.8577 19.4082 53.8811 19.341 53.8784 19.2721C53.8758 19.2033 53.8473 19.138 53.7986 19.0893C53.7499 19.0406 53.6846 19.0121 53.6158 19.0095C53.5469 19.0068 53.4797 19.0302 53.4273 19.075L52.927 19.5754V18.8672C52.927 18.7947 52.8981 18.7251 52.8469 18.6738C52.7956 18.6226 52.726 18.5938 52.6535 18.5938C52.581 18.5938 52.5114 18.6226 52.4602 18.6738C52.4089 18.7251 52.3801 18.7947 52.3801 18.8672V19.5754L51.8797 19.075C51.8274 19.0302 51.7601 19.0068 51.6913 19.0095C51.6225 19.0121 51.5572 19.0406 51.5085 19.0893C51.4598 19.138 51.4313 19.2033 51.4286 19.2721C51.4259 19.341 51.4493 19.4082 51.4941 19.4605L51.9809 19.9609H51.2754C51.2029 19.9609 51.1333 19.9897 51.082 20.041C51.0308 20.0923 51.002 20.1619 51.002 20.2344C51.002 20.3069 51.0308 20.3764 51.082 20.4277C51.1333 20.479 51.2029 20.5078 51.2754 20.5078H51.9836L51.4805 21.0082C51.4357 21.0605 51.4123 21.1278 51.4149 21.1966C51.4176 21.2654 51.4461 21.3307 51.4948 21.3794C51.5435 21.4281 51.6088 21.4566 51.6776 21.4593C51.7464 21.462 51.8137 21.4385 51.866 21.3937L52.3664 20.8934V21.6016C52.3664 21.6741 52.3952 21.7436 52.4465 21.7949C52.4978 21.8462 52.5673 21.875 52.6398 21.875C52.7124 21.875 52.7819 21.8462 52.8332 21.7949C52.8845 21.7436 52.9133 21.6741 52.9133 21.6016V20.8934L53.4137 21.3937C53.466 21.4385 53.5333 21.462 53.6021 21.4593C53.6709 21.4566 53.7362 21.4281 53.7849 21.3794C53.8336 21.3307 53.8621 21.2654 53.8648 21.1966C53.8674 21.1278 53.844 21.0605 53.7992 21.0082L53.3125 20.5078H54.0207C54.0932 20.5078 54.1628 20.479 54.2141 20.4277C54.2653 20.3764 54.2941 20.3069 54.2941 20.2344C54.2941 20.1619 54.2653 20.0923 54.2141 20.041C54.1628 19.9897 54.0932 19.9609 54.0207 19.9609H54.0098Z" fill="#40BDFF"/>
</svg>
